<svg width="24" height="24" viewBox="0 0 24 24" fill="none" xmlns="http://www.w3.org/2000/svg">
<path d="M15.4013 9.88079L10.8113 5.29079C10.6239 5.10454 10.3705 5 10.1063 5C9.84208 5 9.58863 5.10454 9.40127 5.29079C9.30754 5.38376 9.23314 5.49436 9.18238 5.61622C9.13161 5.73808 9.10547 5.86878 9.10547 6.00079C9.10547 6.1328 9.13161 6.26351 9.18238 6.38537C9.23314 6.50723 9.30754 6.61783 9.40127 6.71079L14.0013 11.2908C14.095 11.3838 14.1694 11.4944 14.2202 11.6162C14.2709 11.7381 14.2971 11.8688 14.2971 12.0008C14.2971 12.1328 14.2709 12.2635 14.2202 12.3854C14.1694 12.5072 14.095 12.6178 14.0013 12.7108L9.40127 17.2908C9.21296 17.4778 9.10665 17.7319 9.10571 17.9973C9.10477 18.2626 9.20929 18.5175 9.39627 18.7058C9.58325 18.8941 9.83737 19.0004 10.1027 19.0014C10.3681 19.0023 10.623 18.8978 10.8113 18.7108L15.4013 14.1208C15.9631 13.5583 16.2786 12.7958 16.2786 12.0008C16.2786 11.2058 15.9631 10.4433 15.4013 9.88079Z" fill="#171A1C"/>
</svg>
