<svg width="16" height="16" viewBox="0 0 16 16" fill="none" xmlns="http://www.w3.org/2000/svg">
<g clip-path="url(#clip0_1633_1172)">
<path d="M9.2305 11.511L7.05584 13.6857C6.42445 14.3002 5.57651 14.6414 4.69547 14.6355C3.81443 14.6296 2.97113 14.2771 2.34804 13.6541C1.72495 13.0312 1.37216 12.188 1.36601 11.307C1.35986 10.426 1.70084 9.57792 2.31517 8.94637L4.48984 6.7697C4.61484 6.64461 4.68503 6.47498 4.68497 6.29814C4.68491 6.12129 4.6146 5.95171 4.4895 5.82671C4.36441 5.7017 4.19478 5.63151 4.01793 5.63157C3.84109 5.63163 3.67151 5.70195 3.5465 5.82704L1.3725 8.0037C0.494017 8.88263 0.000664141 10.0745 0.000976711 11.3172C0.00128928 12.5599 0.495241 13.7515 1.37417 14.63C2.2531 15.5085 3.445 16.0019 4.68768 16.0015C5.93036 16.0012 7.12202 15.5073 8.0005 14.6284L10.1752 12.4537C10.2966 12.328 10.3638 12.1596 10.3623 11.9848C10.3608 11.81 10.2907 11.6428 10.167 11.5191C10.0434 11.3955 9.87623 11.3254 9.70144 11.3239C9.52664 11.3224 9.35824 11.3896 9.2325 11.511H9.2305Z" fill="#171A1C"/>
<path d="M14.6299 1.37402C14.1961 0.937226 13.6799 0.590869 13.1112 0.355014C12.5426 0.119159 11.9328 -0.0015043 11.3172 1.64272e-05C10.7019 -0.00161806 10.0924 0.118735 9.52392 0.354117C8.95544 0.589499 8.43925 0.935241 8.00521 1.37135L5.82721 3.54668C5.70211 3.67169 5.6318 3.84127 5.63174 4.01811C5.63168 4.19496 5.70187 4.36459 5.82687 4.48968C5.95188 4.61478 6.12146 4.68509 6.29831 4.68515C6.47515 4.68521 6.64478 4.61502 6.76988 4.49002L8.94654 2.31535C9.25691 2.00312 9.62613 1.75555 10.0328 1.58699C10.4395 1.41843 10.8756 1.33222 11.3159 1.33335C11.9787 1.33357 12.6266 1.5303 13.1777 1.89868C13.7287 2.26706 14.1582 2.79055 14.4118 3.40296C14.6653 4.01538 14.7317 4.68923 14.6023 5.33933C14.473 5.98944 14.1539 6.58661 13.6852 7.05535L11.5105 9.23002C11.3854 9.35511 11.3152 9.52477 11.3152 9.70168C11.3152 9.87859 11.3854 10.0483 11.5105 10.1734C11.6356 10.2984 11.8053 10.3687 11.9822 10.3687C12.1591 10.3687 12.3288 10.2984 12.4539 10.1734L14.6285 8.00002C15.5059 7.12075 15.9988 5.92942 15.999 4.68729C15.9993 3.44517 15.5069 2.25364 14.6299 1.37402Z" fill="#171A1C"/>
<path d="M9.52928 5.52847L5.52928 9.52846C5.4656 9.58996 5.41481 9.66352 5.37987 9.74486C5.34494 9.82619 5.32654 9.91367 5.32578 10.0022C5.32501 10.0907 5.34187 10.1785 5.37539 10.2604C5.40892 10.3424 5.45842 10.4168 5.52101 10.4794C5.58361 10.542 5.65804 10.5915 5.73997 10.625C5.8219 10.6585 5.90969 10.6754 5.99821 10.6746C6.08673 10.6739 6.17421 10.6555 6.25555 10.6205C6.33688 10.5856 6.41044 10.5348 6.47194 10.4711L10.4719 6.47113C10.5934 6.3454 10.6606 6.177 10.6591 6.0022C10.6575 5.8274 10.5874 5.6602 10.4638 5.53659C10.3402 5.41298 10.173 5.34287 9.99821 5.34135C9.82341 5.33983 9.65501 5.40703 9.52928 5.52847Z" fill="#171A1C"/>
</g>
<defs>
<clipPath id="clip0_1633_1172">
<rect width="16" height="16" fill="white"/>
</clipPath>
</defs>
</svg>
